PathFileType	4	(X/Y/Z)	E:\3-PhD\Data\MocapData\ElaboratedData\012\pre\dynamicElaborations\Run_baselineA1\Run_baselineA1.trc
DataRate	CameraRate	NumFrames	NumMarkers	Units	OrigDataRate	OrigDataStartFrame	OrigNumFrames
200	200	4	56	mm	200	8.290000e+02	106
Frame#	Time	FHD			LBHD			RBHD			C7			T10			CLAV			LSHO			LUUPA			LMUPA			LDUPA			LLEP			LMEP			LRAD			LUL			LRFIN			RSHO			RUPA1			RMUPA			RDUPA			RLEP			RMEP			RRAD			RUL			RUFIN			LASI			RASI			USACR			LSACR			RSACR			LTHI1			LTHI2			LTHI3			LTHI4			LLFC			LTIB1			LTIB2			LTIB3			LTIB4			LHEE			LMT1			LMT5			LMT2			RTHI			RTHI2			RTHI3			RTHI4			RLFC			RTIB1			RTIB2			RTIB3			RTIB4			RLMAL			RHEE			RMT1			RMT2			RMT5		
		X1	Y1	Z1	X2	Y2	Z2	X3	Y3	Z3	X4	Y4	Z4	X5	Y5	Z5	X6	Y6	Z6	X7	Y7	Z7	X8	Y8	Z8	X9	Y9	Z9	X10	Y10	Z10	X11	Y11	Z11	X12	Y12	Z12	X13	Y13	Z13	X14	Y14	Z14	X15	Y15	Z15	X16	Y16	Z16	X17	Y17	Z17	X18	Y18	Z18	X19	Y19	Z19	X20	Y20	Z20	X21	Y21	Z21	X22	Y22	Z22	X23	Y23	Z23	X24	Y24	Z24	X25	Y25	Z25	X26	Y26	Z26	X27	Y27	Z27	X28	Y28	Z28	X29	Y29	Z29	X30	Y30	Z30	X31	Y31	Z31	X32	Y32	Z32	X33	Y33	Z33	X34	Y34	Z34	X35	Y35	Z35	X36	Y36	Z36	X37	Y37	Z37	X38	Y38	Z38	X39	Y39	Z39	X40	Y40	Z40	X41	Y41	Z41	X42	Y42	Z42	X43	Y43	Z43	X44	Y44	Z44	X45	Y45	Z45	X46	Y46	Z46	X47	Y47	Z47	X48	Y48	Z48	X49	Y49	Z49	X50	Y50	Z50	X51	Y51	Z51	X52	Y52	Z52	X53	Y53	Z53	X54	Y54	Z54	X55	Y55	Z55	X56	Y56	Z56	
921	4.600000	-680.885062	1753.468662	334.915086	-827.100604	1737.419366	219.124597	-826.167359	1719.558881	370.622699	-867.330777	1552.599379	289.779391	-974.688952	1220.384255	314.778594	-731.895519	1451.398414	296.653622	-753.107028	1565.210597	153.269055	-749.045200	1360.675985	34.415596	-709.811590	1337.357860	53.857200	-742.724775	1291.223736	30.034516	-707.392862	1205.485135	34.358371	-768.311776	1185.384618	96.064999	-530.117023	1168.519561	244.729512	-506.687508	1114.516111	194.648234	-450.922147	1165.248128	279.342023	-793.637561	1507.280600	471.192795	-1009.490921	1408.390727	523.129834	-999.255744	1369.824396	552.960679	-1056.282099	1361.937219	542.566482	-1109.172706	1313.610368	560.797850	-1105.576070	1271.317874	490.978644	-1035.643499	1058.385277	658.479504	-1104.711154	1057.049412	696.388424	-1025.421774	982.082893	703.365384	-918.455524	983.605041	147.105216	-864.868867	961.874192	376.859926	-1031.360242	1101.222070	323.932204	-1056.579413	1077.755435	300.181579	-1041.474561	1070.741459	355.535456	-1052.375160	744.703069	97.635467	-1019.067982	667.074474	88.593961	-972.896554	663.333934	93.594048	-1049.755192	615.536287	98.421077	-1067.554230	453.776048	105.329412	-1144.629665	290.249735	182.615553	-1195.457513	270.029734	115.480455	-1173.632306	249.872693	150.915458	-1229.861791	197.377937	187.009111	-1421.181188	85.357171	208.179364	-1214.831061	51.329164	233.847471	-1239.942347	38.669740	133.352089	-1201.951659	48.842207	180.121622	-802.713256	735.928219	443.697005	-735.855576	724.187947	431.440961	-714.303174	745.021853	414.628503	-706.229896	646.335112	417.882532	-668.095260	554.849161	384.323115	-740.183193	452.605342	336.584457	-835.943091	471.236714	384.296623	-821.391453	433.476194	363.269497	-861.197429	405.772809	331.682627	-1040.065075	380.936737	344.160919	-1108.212848	397.996482	298.418323	-974.476718	218.141445	272.425467	-966.220384	222.610983	315.659372	-1007.110653	240.352789	369.402663	
922	4.605000	-653.195601	1756.361342	335.908118	-799.295659	1739.828304	220.095550	-798.294025	1722.044462	371.713765	-838.840610	1554.597877	289.599327	-944.490652	1221.358656	311.148761	-702.938664	1454.962926	298.585615	-722.687761	1569.083746	155.925209	-713.683035	1365.001468	36.766062	-674.968450	1342.029503	57.168077	-706.871309	1295.607871	32.894153	-671.013593	1210.285220	38.335742	-733.522362	1189.802321	98.413575	-499.022456	1180.622099	254.217192	-473.479646	1125.886631	205.943523	-420.507604	1179.467805	290.592869	-767.314143	1510.631175	471.726448	-984.357770	1416.103776	519.920962	-975.687613	1378.192976	550.786811	-1032.548036	1371.093645	539.273130	-1087.117173	1324.087950	557.387025	-1082.429320	1279.858516	488.839816	-1019.417500	1070.902927	663.859963	-1089.996478	1070.956934	698.993721	-1011.371337	996.011887	711.368724	-885.243991	981.668188	145.864421	-832.632978	965.112727	376.237389	-999.445142	1101.824712	321.038800	-1024.161466	1077.989966	297.095476	-1009.975553	1071.770364	352.825145	-1027.824264	746.061599	96.933709	-998.348188	666.813347	88.510671	-952.171061	661.277693	93.721578	-1031.514348	616.929255	98.026355	-1057.483871	456.253697	105.055149	-1137.493577	293.818539	181.823820	-1188.641120	274.668269	114.512183	-1167.085550	254.040545	149.850271	-1223.990628	202.073581	185.683358	-1417.347158	94.698106	206.491411	-1214.224608	50.897198	233.726852	-1239.309123	38.930862	133.275837	-1201.314159	47.921997	180.148644	-766.793467	743.307072	443.022069	-699.582451	733.741926	430.858471	-678.686869	755.511729	414.454185	-667.359883	656.961818	416.873619	-625.926127	565.438060	384.340583	-691.372824	458.031015	336.226074	-788.264276	469.861981	383.962789	-771.077728	433.214368	362.666628	-808.985421	403.110459	330.846295	-985.981089	365.756037	343.362410	-1055.233342	378.007751	297.801498	-908.545421	208.517154	271.368672	-900.794057	213.287508	314.585040	-942.845137	228.020488	368.332301	
923	4.610000	-625.364800	1759.325448	337.019656	-771.383787	1742.432550	221.231976	-770.300442	1724.731956	372.956257	-810.303516	1556.792463	289.524368	-914.387382	1222.493996	307.256971	-674.039653	1458.669655	300.565119	-692.442941	1573.095540	158.667700	-678.192671	1369.706224	39.183823	-640.214391	1347.009934	60.728566	-670.892400	1300.380230	35.743360	-634.931154	1215.408127	42.102716	-699.174877	1194.478506	100.329322	-468.703941	1192.269392	263.173229	-441.190902	1136.913777	216.689615	-391.001905	1193.014933	301.298863	-740.745155	1514.032060	472.243703	-958.651944	1423.853682	516.885462	-951.509301	1386.522545	548.572671	-1008.181771	1380.221051	536.027022	-1064.328204	1334.514843	553.960753	-1058.870275	1288.435784	486.547315	-1002.291537	1083.521624	668.445932	-1074.105457	1084.907017	701.040558	-996.294408	1010.033983	718.337934	-851.484694	979.990129	144.983903	-800.177780	968.761883	375.839889	-967.207437	1102.507054	318.094408	-991.355673	1078.244318	293.908654	-978.278191	1072.951068	349.921867	-1002.695105	748.066708	96.182164	-977.075733	667.364524	88.532624	-930.971045	660.130176	94.003040	-1012.636531	619.240615	97.671827	-1046.658168	460.146010	104.911273	-1129.374851	298.517032	180.956570	-1180.860100	280.484745	113.471470	-1159.525038	259.387177	148.625520	-1216.927517	207.691889	184.124640	-1412.119625	105.377294	204.547158	-1213.326566	50.550714	233.541066	-1238.429830	39.334505	133.127808	-1200.494931	46.933248	180.132349	-731.381692	750.275747	442.306076	-663.930198	742.616881	430.317995	-643.603592	765.259734	414.455878	-629.473206	666.851969	415.839756	-584.943662	575.342548	384.467795	-643.279193	463.198540	335.911780	-740.832318	468.104504	383.671484	-721.088492	432.756573	362.091820	-756.903271	400.387960	330.014237	-931.141793	350.550642	342.412212	-1001.167854	357.905349	297.040027	-842.244638	199.835983	270.034785	-835.020102	204.798546	313.237699	-878.007695	216.314870	366.982965	
924	4.615000	-597.395839	1762.297336	338.236834	-743.373697	1745.182759	222.524993	-742.193787	1727.560652	374.330235	-781.724574	1559.135233	289.533969	-884.299636	1223.745341	303.217179	-645.193861	1462.455966	302.569865	-662.385257	1577.200436	161.461870	-642.651865	1374.716089	41.720026	-605.581830	1352.230160	64.534861	-634.833244	1305.470417	38.599233	-599.115387	1220.799670	45.646646	-665.211282	1199.333567	101.792233	-439.074234	1203.342051	271.596224	-409.721940	1147.504459	226.866466	-362.333848	1205.769799	311.507524	-713.932188	1517.422965	472.746716	-932.430065	1431.575070	514.065752	-926.755975	1394.720816	546.366883	-983.228859	1389.226303	532.864172	-1040.840436	1344.803046	550.532889	-1034.920921	1296.982607	484.077889	-984.248795	1096.097513	672.301967	-1057.029758	1098.780825	702.632149	-980.163270	1023.960171	724.324252	-817.259343	978.663838	144.453704	-767.537185	972.724113	375.621872	-934.723835	1103.256367	315.098135	-958.261799	1078.526290	290.666136	-946.419812	1074.243393	346.849353	-976.968832	750.715814	95.368354	-955.175806	668.749601	88.615828	-909.230953	659.915559	94.418995	-993.017114	622.445107	97.357171	-1034.866574	465.395463	104.911966	-1120.082242	304.258255	180.022158	-1171.949042	287.422288	112.391483	-1150.775460	265.839393	147.259540	-1208.501911	214.158747	182.364638	-1405.257624	117.366115	202.428658	-1212.031091	50.410195	233.278062	-1237.253927	39.969795	132.917277	-1199.437448	45.957965	180.050703	-696.453680	756.730738	441.517885	-628.853423	750.685985	429.801983	-608.987723	774.133881	414.629457	-592.528729	675.847267	414.784960	-545.109349	584.410281	384.683968	-595.920607	468.014099	335.651139	-693.645483	465.934320	383.420974	-671.449646	432.059850	361.567435	-704.985105	397.574284	329.214269	-875.569804	335.394501	341.327639	-946.021535	337.802259	296.125057	-775.700665	192.131788	268.459213	-769.022692	197.170456	311.654356	-812.710948	205.269922	365.382137	
